<svg xmlns="http://www.w3.org/2000/svg" width="112" height="112" viewBox="0 0 112 112" fill="none" role="img" aria-label="AI-assisted Engineering">
  <defs>
    <linearGradient id="c" x1="0" y1="0" x2="1" y2="1">
      <stop offset="0%" stop-color="#0F172A"/>
      <stop offset="100%" stop-color="#020617"/>
    </linearGradient>
  </defs>
  <rect x="1" y="1" width="110" height="110" rx="20" fill="url(#c)" stroke="#1E3A8A" stroke-opacity="0.55"/>
  <g stroke="#3B82F6" stroke-width="2.4" stroke-linecap="round" stroke-linejoin="round" fill="none">
    <rect x="42" y="42" width="28" height="28" rx="6"/>
    <line x1="50" y1="34" x2="50" y2="42"/>
    <line x1="62" y1="34" x2="62" y2="42"/>
    <line x1="50" y1="70" x2="50" y2="78"/>
    <line x1="62" y1="70" x2="62" y2="78"/>
    <line x1="34" y1="50" x2="42" y2="50"/>
    <line x1="34" y1="62" x2="42" y2="62"/>
    <line x1="70" y1="50" x2="78" y2="50"/>
    <line x1="70" y1="62" x2="78" y2="62"/>
  </g>
  <path d="M56 48 l3 6 l6 2 l-6 2 l-3 6 l-3 -6 l-6 -2 l6 -2 z" fill="#60A5FA">
    <animate attributeName="opacity" values="0.5;1;0.5" dur="2.5s" repeatCount="indefinite"/>
  </path>
  <text x="56" y="92" text-anchor="middle" font-family="'Segoe UI',Arial,sans-serif" font-size="11" font-weight="600" fill="#94A3B8" letter-spacing="1">AI WORKFLOW</text>
</svg>
